<?xml version="1.0" standalone="no"?>
<!DOCTYPE svg PUBLIC "-//W3C//DTD SVG 20010904//EN"
 "http://www.w3.org/TR/2001/REC-SVG-20010904/DTD/svg10.dtd">
<svg version="1.0" xmlns="http://www.w3.org/2000/svg"
 width="243.000000pt" height="243.000000pt" viewBox="0 0 243.000000 243.000000"
 preserveAspectRatio="xMidYMid meet">
<metadata>
Created by potrace 1.11, written by Peter Selinger 2001-2013
</metadata>
<g transform="translate(0.000000,243.000000) scale(0.100000,-0.100000)"
fill="#000000" stroke="none">
<path d="M362 2408 c-7 -7 -12 -8 -12 -4 0 5 -8 2 -17 -5 -11 -10 -14 -10 -9
-1 4 7 1 12 -9 12 -10 0 -13 -5 -9 -12 6 -10 4 -10 -7 -2 -23 19 -104 2 -113
-23 -3 -8 -10 -12 -15 -9 -5 3 -11 -3 -14 -14 -3 -11 0 -20 6 -20 8 0 7 -3 -1
-9 -17 -11 -17 -21 0 -32 10 -7 10 -9 1 -9 -7 0 -13 -7 -13 -15 0 -8 6 -15 13
-15 7 0 8 -3 2 -8 -5 -4 -11 -18 -13 -31 -3 -17 0 -21 10 -15 10 6 11 5 1 -7
-10 -12 -10 -18 0 -29 9 -10 9 -11 0 -6 -16 9 -17 -16 -1 -32 8 -8 8 -15 -1
-26 -9 -10 -9 -16 -1 -21 8 -5 8 -10 0 -20 -8 -10 -8 -15 0 -20 8 -5 8 -10 0
-20 -8 -9 -8 -15 0 -20 6 -3 7 -11 3 -18 -11 -18 -12 -81 -2 -94 7 -7 6 -14
-1 -18 -5 -3 -10 -13 -10 -21 0 -10 5 -12 13 -8 9 6 9 5 0 -7 -10 -12 -10 -18
0 -29 9 -10 9 -11 0 -6 -16 9 -18 -20 -3 -29 8 -5 8 -11 0 -20 -8 -10 -8 -15
0 -20 8 -5 8 -11 1 -19 -7 -9 -7 -17 2 -26 9 -10 9 -11 0 -6 -14 8 -18 -10 -5
-18 10 -6 9 -36 -1 -53 -4 -6 -3 -15 3 -18 8 -5 7 -11 -1 -21 -9 -11 -8 -14 2
-14 12 0 12 -2 0 -9 -9 -6 -10 -10 -2 -16 9 -5 9 -10 0 -21 -9 -11 -8 -14 2
-14 9 0 10 -3 4 -8 -13 -9 -16 -42 -3 -42 5 0 8 -8 7 -17 -1 -10 -1 -25 0 -33
1 -13 2 -13 11 0 8 13 10 12 10 -3 0 -10 4 -16 9 -13 5 4 11 2 13 -4 1 -5 26
-11 55 -12 28 -2 49 -6 47 -9 -2 -4 2 -10 8 -12 10 -4 9 -6 -1 -6 -11 -1 -11
-4 -1 -16 10 -12 10 -15 0 -15 -9 0 -9 -4 1 -17 12 -15 12 -16 -1 -8 -13 8
-13 7 -1 -8 11 -14 11 -17 0 -17 -9 0 -10 -3 -3 -8 9 -6 16 -56 18 -142 1 -19
4 -40 8 -45 4 -6 3 -17 -2 -25 -5 -8 -5 -21 -1 -29 4 -9 7 -31 7 -48 -1 -18 2
-33 6 -33 4 0 3 -12 -2 -26 -7 -16 -7 -23 0 -19 6 3 10 1 10 -4 0 -6 -5 -11
-11 -11 -5 0 -7 -5 -3 -12 9 -15 14 -45 18 -118 2 -30 5 -55 6 -55 1 0 3 -8 5
-18 2 -9 0 -15 -3 -13 -4 2 -7 -6 -7 -19 0 -13 3 -21 7 -19 3 2 7 -15 7 -38 0
-24 2 -79 6 -123 3 -44 6 -95 6 -113 1 -17 5 -35 10 -38 6 -3 5 -11 -2 -20 -9
-11 -8 -14 2 -14 12 0 12 -2 0 -9 -10 -6 -10 -10 -1 -16 9 -6 9 -10 -1 -16
-10 -6 -10 -9 -2 -9 15 0 0 -43 -25 -72 -9 -11 -12 -28 -9 -47 4 -16 2 -31 -2
-33 -5 -2 -5 -13 0 -26 7 -18 14 -22 30 -17 15 5 19 4 14 -5 -6 -9 -3 -9 14 0
16 8 26 8 35 1 9 -7 16 -7 23 0 8 8 13 8 17 0 5 -8 13 -8 29 0 16 9 22 9 25 1
3 -9 9 -9 24 -1 16 8 19 8 13 -1 -6 -9 -3 -9 12 -1 14 7 24 7 33 -2 10 -9 11
-9 6 1 -9 15 10 16 19 2 4 -6 12 -7 18 -3 15 11 38 10 56 -1 10 -6 12 -5 7 2
-4 7 -2 12 3 12 6 0 11 -6 11 -12 0 -10 3 -9 9 1 6 9 10 10 16 2 5 -9 10 -9
21 0 11 9 14 9 14 0 0 -8 6 -9 18 -4 15 8 38 9 52 3 19 -7 39 -7 34 1 -3 5 -1
9 5 9 5 0 13 -5 16 -10 5 -8 11 -8 20 0 9 8 15 8 20 0 4 -7 13 -7 28 1 16 9
22 9 25 1 3 -9 9 -9 24 -1 16 8 19 8 13 -1 -6 -9 -3 -9 12 -1 14 7 23 7 30 0
8 -8 13 -7 17 0 4 6 12 11 17 11 6 0 7 -5 3 -11 -4 -7 2 -6 17 1 17 10 24 10
27 2 3 -9 9 -9 24 -1 16 9 19 8 13 -2 -5 -8 -4 -10 4 -5 18 12 61 14 67 5 3
-5 15 -4 27 2 16 9 22 9 25 1 3 -9 9 -9 24 -1 16 9 19 8 13 -2 -5 -8 -4 -10 4
-5 16 10 81 16 81 7 0 -4 7 -8 15 -8 8 0 12 4 9 9 -3 4 -1 8 5 8 5 0 13 -5 16
-10 4 -7 13 -6 26 1 14 7 24 7 32 0 8 -6 18 -6 27 -1 9 6 20 4 29 -3 12 -9 13
-9 7 1 -4 7 -1 12 9 12 13 0 16 10 14 57 -2 32 -9 64 -16 71 -7 8 -11 18 -8
23 4 5 1 9 -5 9 -6 0 -8 4 -5 10 3 5 0 10 -7 10 -10 0 -10 2 1 9 11 7 11 9 0
14 -11 4 -11 6 -1 6 9 1 10 6 2 20 -6 13 -7 22 0 26 5 3 8 19 6 35 -2 18 1 30
8 30 6 0 4 5 -4 10 -10 6 -11 10 -2 10 14 0 12 21 -3 32 -6 5 -6 8 1 8 7 0 11
14 10 35 -1 19 1 35 4 35 3 0 5 25 4 55 0 30 3 55 7 55 4 0 3 16 -1 35 -4 19
-4 33 0 30 4 -3 8 10 8 29 0 19 3 39 6 45 4 5 2 12 -4 16 -6 4 -7 13 -2 23 5
9 8 38 8 64 -1 27 2 48 5 48 3 0 4 16 3 35 -2 26 0 34 9 28 9 -5 9 -3 0 9 -7
8 -10 18 -6 22 11 11 10 46 -1 46 -6 0 -5 4 3 9 9 6 10 10 2 16 -9 5 -9 10 -1
20 6 7 11 35 11 63 1 29 6 49 10 46 5 -3 5 6 0 19 -8 20 -6 23 12 22 12 -2 21
-8 19 -14 -1 -6 5 -11 14 -11 8 0 13 -4 10 -9 -4 -5 -1 -11 5 -13 6 -2 12 -17
14 -33 1 -17 6 -38 10 -48 4 -9 5 -26 2 -37 -3 -11 0 -20 6 -20 7 0 5 -5 -3
-10 -13 -9 -13 -10 0 -10 9 0 11 -3 5 -8 -5 -4 -10 -18 -9 -32 0 -14 -4 -31
-9 -37 -6 -9 -5 -13 3 -13 9 0 9 -4 3 -12 -6 -7 -11 -20 -11 -28 -1 -8 -2 -31
-3 -50 -1 -19 -7 -38 -13 -42 -7 -5 -6 -8 3 -8 10 0 11 -3 2 -14 -9 -10 -9
-16 -1 -21 8 -5 8 -11 -1 -21 -9 -11 -9 -14 1 -14 10 0 10 -4 -1 -16 -10 -13
-10 -17 0 -24 11 -6 11 -9 0 -13 -12 -4 -11 -7 1 -16 13 -10 13 -11 0 -11 -12
0 -12 -2 -1 -9 9 -6 10 -10 2 -16 -8 -4 -9 -11 -3 -18 5 -7 13 -28 18 -47 4
-19 9 -38 10 -42 1 -5 2 -13 3 -19 0 -5 5 -7 11 -4 6 3 7 -1 4 -9 -3 -9 -1
-16 5 -16 6 0 10 -3 9 -7 -4 -16 14 -53 23 -48 5 4 9 -4 9 -16 0 -12 3 -20 6
-16 3 3 17 -5 31 -19 13 -13 30 -24 38 -24 8 0 15 -4 15 -9 0 -5 14 -8 30 -7
16 1 30 -1 30 -5 0 -5 39 0 70 9 44 14 71 30 76 45 3 10 8 16 11 14 8 -8 43
31 43 48 0 8 4 15 9 15 5 0 13 15 16 32 4 18 12 39 19 47 9 12 8 13 -4 6 -13
-8 -13 -6 -2 7 7 9 14 41 15 72 1 30 6 52 10 49 5 -3 5 3 0 13 -5 11 -10 46
-12 79 -1 33 -7 63 -13 66 -7 4 -6 9 1 14 9 5 9 10 0 21 -6 7 -9 20 -6 28 3 8
3 17 -1 21 -4 4 -7 10 -8 13 0 4 -6 40 -13 79 -7 40 -11 74 -9 76 1 2 -3 11
-10 19 -10 13 -10 17 0 21 9 4 9 6 1 6 -7 1 -10 11 -7 26 2 14 1 25 -4 25 -4
0 -8 9 -9 20 -1 11 2 18 6 16 4 -3 8 1 8 9 0 8 -4 12 -9 9 -7 -5 -13 65 -9
109 1 9 -4 17 -11 17 -9 0 -9 3 2 10 12 8 12 10 1 10 -11 0 -11 3 -1 15 10 12
10 15 -1 15 -11 0 -11 2 1 10 8 5 10 10 4 10 -11 0 -12 52 -1 98 3 12 2 20 -3
17 -4 -3 -8 14 -8 37 0 24 -1 46 -2 51 -2 4 -3 15 -4 25 -1 9 -5 22 -9 29 -4
6 -3 14 3 18 6 4 7 13 1 23 -4 9 -7 25 -6 35 2 9 -1 17 -6 17 -5 0 -4 11 1 26
13 32 13 43 0 24 -8 -13 -10 -13 -10 1 0 9 7 19 15 23 19 7 19 30 0 46 -8 7
-12 16 -9 21 3 5 -3 9 -13 9 -15 0 -16 2 -3 10 12 8 12 10 -2 15 -8 3 -26 26
-38 50 -19 37 -26 43 -41 35 -18 -10 -49 10 -49 31 0 5 -9 9 -20 9 -11 0 -24
8 -27 18 -4 9 -12 22 -17 29 -36 41 -37 43 -24 43 8 0 9 3 3 8 -6 4 -10 45
-10 97 1 50 -4 99 -9 110 -6 11 -9 24 -8 28 1 5 -2 6 -8 2 -5 -3 -10 -2 -10 4
0 11 -34 24 -65 25 -11 1 -26 5 -34 10 -10 6 -12 6 -7 -3 10 -15 -65 -11 -76
4 -5 6 -8 5 -8 -3 0 -8 -8 -10 -26 -6 -21 6 -25 4 -19 -7 6 -11 5 -11 -5 -2
-7 6 -18 9 -25 7 -7 -3 -16 0 -20 6 -5 8 -11 8 -22 -1 -12 -10 -16 -10 -24 2
-5 8 -9 9 -9 2 0 -12 -113 -14 -125 -1 -4 4 -18 0 -31 -9 -23 -15 -24 -14 -17
3 6 17 5 17 -10 5 -9 -7 -17 -10 -17 -6 0 4 -8 1 -17 -6 -10 -8 -14 -9 -10 -2
4 6 3 14 -3 18 -5 3 -10 1 -10 -4 0 -6 -11 -11 -25 -11 -14 0 -25 6 -25 13 0
8 -3 7 -10 -3 -5 -8 -12 -11 -16 -7 -4 4 -14 1 -22 -6 -11 -8 -14 -8 -9 0 4 6
3 14 -3 18 -5 3 -10 1 -10 -4 0 -6 -11 -11 -25 -11 -14 0 -25 6 -25 13 0 8 -3
7 -10 -3 -5 -8 -12 -11 -16 -7 -4 4 -14 1 -22 -6 -11 -8 -14 -8 -9 0 4 6 3 14
-3 18 -5 3 -10 1 -10 -4 0 -6 -11 -11 -25 -11 -14 0 -25 6 -25 13 0 8 -3 7
-10 -3 -5 -8 -12 -11 -16 -7 -4 4 -14 1 -22 -6 -11 -8 -14 -8 -9 0 4 6 3 14
-3 18 -5 3 -10 1 -10 -4 0 -6 -11 -11 -25 -11 -14 0 -25 6 -25 13 0 8 -3 7
-10 -3 -5 -8 -12 -11 -16 -7 -4 4 -14 1 -22 -6 -11 -8 -14 -8 -9 0 4 6 3 14
-3 18 -5 3 -10 1 -10 -4 0 -6 -11 -11 -25 -11 -14 0 -25 6 -25 13 0 8 -3 7
-10 -3 -5 -8 -12 -11 -16 -7 -4 4 -13 2 -20 -4 -8 -7 -14 -6 -20 2 -5 8 -3 9
6 4 9 -5 11 -4 6 4 -5 7 -12 9 -19 3 -7 -5 -22 -12 -34 -14 -17 -5 -20 -2 -15
11 5 14 4 14 -11 2 -9 -7 -17 -10 -17 -6 0 4 -8 1 -17 -6 -11 -10 -14 -10 -9
-1 5 8 0 12 -14 12 -13 0 -19 -4 -14 -11 4 -8 1 -8 -12 -2 -11 6 -36 9 -56 7
-21 -1 -40 2 -43 7 -4 5 -17 2 -31 -7 -22 -15 -24 -15 -18 0 7 19 3 21 -14 4z
m1559 -388 c6 0 7 -6 2 -12 -4 -7 -8 -17 -9 -23 -2 -5 -5 -21 -7 -35 -3 -14
-6 -28 -6 -32 -1 -5 -4 -8 -9 -8 -12 0 -11 124 2 139 9 12 12 11 14 -7 2 -12
8 -22 13 -22z m94 -280 c-3 -5 -1 -10 6 -10 6 0 9 -8 6 -20 -3 -11 -1 -23 5
-26 6 -4 5 -10 -3 -15 -11 -7 -11 -9 -1 -9 7 0 12 -12 12 -27 0 -50 3 -68 14
-75 7 -5 6 -8 -3 -8 -10 0 -11 -3 -2 -13 8 -10 7 -14 -2 -14 -6 0 -24 -4 -38
-8 l-27 -7 4 86 c4 77 2 86 -16 99 -20 14 -20 15 12 36 38 24 42 25 33 11z
m-59 -73 c4 -4 2 -7 -5 -7 -7 0 -9 -5 -4 -12 9 -15 11 -88 2 -88 -3 0 -5 -11
-4 -25 2 -14 -1 -25 -6 -25 -5 0 -9 11 -9 25 0 14 -6 25 -12 25 -9 0 -9 3 1 9
9 6 11 15 6 27 -12 28 -12 38 -2 52 6 8 5 12 -2 12 -7 0 -10 4 -7 9 7 10 31 9
42 -2z m14 -198 c0 -7 4 -8 13 -2 17 13 81 17 73 5 -3 -6 -1 -12 5 -14 7 -2
12 -27 12 -61 0 -39 3 -55 11 -50 6 4 5 -1 -3 -10 -10 -13 -10 -17 -1 -17 10
0 10 -3 0 -15 -10 -12 -10 -15 0 -15 9 0 9 -4 -1 -17 -8 -9 -9 -14 -3 -10 10
6 13 -16 17 -120 1 -13 4 -23 9 -23 4 0 5 -13 3 -30 -2 -16 1 -30 6 -30 5 0 9
-5 9 -11 0 -5 -4 -7 -10 -4 -10 6 -3 -21 10 -40 4 -5 6 -20 4 -33 -2 -13 -1
-21 3 -19 5 3 8 -5 9 -16 0 -12 4 -44 8 -72 5 -27 9 -54 10 -60 0 -5 6 -13 11
-17 6 -5 5 -8 -4 -8 -9 0 -10 -4 -4 -12 9 -13 15 -58 17 -143 1 -22 5 -46 10
-54 6 -10 6 -12 -2 -7 -8 5 -12 -4 -12 -28 0 -20 -4 -36 -8 -36 -4 0 -9 -10
-9 -22 -1 -13 -9 -28 -18 -34 -8 -6 -15 -16 -15 -22 0 -15 -74 -53 -108 -56
-15 -1 -36 5 -46 13 -16 14 -18 14 -12 1 4 -8 -1 -5 -12 7 -11 12 -21 21 -23
19 -2 -2 -10 2 -17 10 -7 8 -10 14 -6 14 3 0 -4 9 -17 21 -13 11 -17 17 -9 13
11 -6 10 -2 -2 13 -10 11 -18 32 -18 46 0 15 -6 27 -12 28 -9 0 -9 2 1 6 11 5
11 7 0 14 -12 7 -12 9 0 9 11 0 11 3 0 17 -12 14 -12 16 0 8 11 -6 12 -5 5 6
-12 19 -12 33 1 41 6 5 5 8 -4 8 -10 0 -11 3 -2 14 9 10 9 16 1 21 -8 5 -7 11
2 23 11 13 11 15 -2 7 -12 -6 -13 -5 -3 5 9 9 9 19 2 33 -7 11 -7 17 -1 13 9
-6 12 12 14 86 1 24 5 35 12 31 6 -4 5 1 -3 10 -7 9 -9 17 -3 17 6 0 9 19 7
45 -1 25 2 48 7 51 5 3 5 11 0 17 -5 7 -8 24 -7 40 1 15 -1 27 -5 27 -4 0 -7
12 -7 26 0 15 -5 29 -10 33 -11 7 -27 42 -25 53 1 5 -4 7 -11 5 -6 -1 -11 4
-10 11 2 6 -3 12 -10 12 -7 0 -19 9 -27 19 -7 11 -17 18 -22 15 -4 -3 -8 0 -8
6 0 6 -4 8 -10 5 -5 -3 -10 0 -11 7 0 7 -2 21 -4 30 -4 25 12 33 69 34 26 1
52 7 56 14 4 6 11 12 16 13 21 3 41 31 36 50 -3 14 -1 18 6 13 7 -4 12 -2 12
3 0 6 3 10 8 10 24 -4 52 2 47 11 -3 6 -1 10 4 10 6 0 11 -5 11 -11z"/>
</g>
</svg>
